<svg width="24" height="25" viewBox="0 0 24 25" fill="none" xmlns="http://www.w3.org/2000/svg">
<path d="M13 18C13 18.2652 12.8946 18.5196 12.7071 18.7071C12.5196 18.8946 12.2652 19 12 19C11.7348 19 11.4804 18.8946 11.2929 18.7071C11.1054 18.5196 11 18.2652 11 18C11 17.7348 11.1054 17.4804 11.2929 17.2929C11.4804 17.1054 11.7348 17 12 17C12.2652 17 12.5196 17.1054 12.7071 17.2929C12.8946 17.4804 13 17.7348 13 18ZM12.75 9.75C12.75 9.55109 12.671 9.36032 12.5303 9.21967C12.3897 9.07902 12.1989 9 12 9C11.8011 9 11.6103 9.07902 11.4697 9.21967C11.329 9.36032 11.25 9.55109 11.25 9.75V14.25C11.25 14.4489 11.329 14.6397 11.4697 14.7803C11.6103 14.921 11.8011 15 12 15C12.1989 15 12.3897 14.921 12.5303 14.7803C12.671 14.6397 12.75 14.4489 12.75 14.25V9.75Z" fill="#69533F"/>
<path d="M9.83597 3.74387C10.799 2.07887 13.201 2.07887 14.164 3.74387L23.131 19.2479C24.094 20.9149 22.891 22.9999 20.966 22.9999H3.03397C1.10797 22.9999 -0.0940274 20.9149 0.868973 19.2479L9.83597 3.74387ZM12.866 4.49487C12.7778 4.34337 12.6514 4.21765 12.4995 4.13027C12.3475 4.04289 12.1753 3.9969 12 3.9969C11.8247 3.9969 11.6525 4.04289 11.5005 4.13027C11.3485 4.21765 11.2221 4.34337 11.134 4.49487L2.16797 19.9989C2.0806 20.151 2.0347 20.3234 2.03488 20.4989C2.03505 20.6743 2.08129 20.8466 2.16897 20.9986C2.25665 21.1506 2.38269 21.2769 2.53449 21.3648C2.68629 21.4528 2.85853 21.4994 3.03397 21.4999H20.966C21.1413 21.4993 21.3133 21.4527 21.465 21.3648C21.6167 21.2768 21.7426 21.1507 21.8303 20.9989C21.9179 20.847 21.9642 20.6749 21.9645 20.4996C21.9648 20.3243 21.9191 20.152 21.832 19.9999L12.866 4.49487Z" fill="#69533F"/>
</svg>
