<svg width="19" height="19" viewBox="0 0 19 19" fill="none" xmlns="http://www.w3.org/2000/svg">
<path d="M9.5 7.25C10.9497 7.25 12.125 6.07475 12.125 4.625C12.125 3.17525 10.9497 2 9.5 2C8.05025 2 6.875 3.17525 6.875 4.625C6.875 6.07475 8.05025 7.25 9.5 7.25Z" stroke="#69533F" stroke-width="1.5" stroke-linecap="round" stroke-linejoin="round"/>
<path d="M2 15.875C2 12.5611 5.02213 9.875 8.75 9.875" stroke="#69533F" stroke-width="1.5" stroke-linecap="round" stroke-linejoin="round"/>
<path d="M13.25 16.625C15.114 16.625 16.625 15.114 16.625 13.25C16.625 11.386 15.114 9.875 13.25 9.875C11.386 9.875 9.875 11.386 9.875 13.25C9.875 15.114 11.386 16.625 13.25 16.625Z" stroke="#69533F" stroke-width="1.5"/>
<path d="M12.875 12.125V13.625H14.375" stroke="#69533F" stroke-width="1.5" stroke-linecap="round" stroke-linejoin="round"/>
</svg>
