<svg width="34" height="35" viewBox="0 0 34 35" fill="none" xmlns="http://www.w3.org/2000/svg">
<path d="M0 6.5C0 3.18629 2.68629 0.5 6 0.5H28C31.3137 0.5 34 3.18629 34 6.5V28.5C34 31.8137 31.3137 34.5 28 34.5H6C2.68629 34.5 0 31.8137 0 28.5V6.5Z" fill="#D4CCB4"/>
<path d="M17 10C21.1423 10 24.5 13.3578 24.5 17.5C24.5 21.6423 21.1423 25 17 25C12.8578 25 9.5 21.6423 9.5 17.5C9.5 13.3578 12.8578 10 17 10ZM17 11.5C15.4087 11.5 13.8826 12.1321 12.7574 13.2574C11.6321 14.3826 11 15.9087 11 17.5C11 19.0913 11.6321 20.6174 12.7574 21.7426C13.8826 22.8679 15.4087 23.5 17 23.5C18.5913 23.5 20.1174 22.8679 21.2426 21.7426C22.3679 20.6174 23 19.0913 23 17.5C23 15.9087 22.3679 14.3826 21.2426 13.2574C20.1174 12.1321 18.5913 11.5 17 11.5ZM17 13C17.1837 13 17.361 13.0675 17.4983 13.1895C17.6356 13.3116 17.7233 13.4798 17.7448 13.6623L17.75 13.75V17.1895L19.7802 19.2198C19.9148 19.3547 19.9929 19.5358 19.9987 19.7263C20.0045 19.9167 19.9376 20.1023 19.8116 20.2452C19.6855 20.3881 19.5098 20.4777 19.3201 20.4958C19.1305 20.5139 18.941 20.4591 18.7902 20.3425L18.7198 20.2802L16.4698 18.0302C16.3532 17.9136 16.2783 17.7618 16.2568 17.5982L16.25 17.5V13.75C16.25 13.5511 16.329 13.3603 16.4697 13.2197C16.6103 13.079 16.8011 13 17 13Z" fill="#69533F"/>
<path d="M17 10C21.1423 10 24.5 13.3578 24.5 17.5C24.5 21.6423 21.1423 25 17 25C12.8578 25 9.5 21.6423 9.5 17.5C9.5 13.3578 12.8578 10 17 10ZM17 11.5C15.4087 11.5 13.8826 12.1321 12.7574 13.2574C11.6321 14.3826 11 15.9087 11 17.5C11 19.0913 11.6321 20.6174 12.7574 21.7426C13.8826 22.8679 15.4087 23.5 17 23.5C18.5913 23.5 20.1174 22.8679 21.2426 21.7426C22.3679 20.6174 23 19.0913 23 17.5C23 15.9087 22.3679 14.3826 21.2426 13.2574C20.1174 12.1321 18.5913 11.5 17 11.5ZM17 13C17.1837 13 17.361 13.0675 17.4983 13.1895C17.6356 13.3116 17.7233 13.4798 17.7448 13.6623L17.75 13.75V17.1895L19.7802 19.2198C19.9148 19.3547 19.9929 19.5358 19.9987 19.7263C20.0045 19.9167 19.9376 20.1023 19.8116 20.2452C19.6855 20.3881 19.5098 20.4777 19.3201 20.4958C19.1305 20.5139 18.941 20.4591 18.7902 20.3425L18.7198 20.2802L16.4698 18.0302C16.3532 17.9136 16.2783 17.7618 16.2568 17.5982L16.25 17.5V13.75C16.25 13.5511 16.329 13.3603 16.4697 13.2197C16.6103 13.079 16.8011 13 17 13Z" fill="#69533F"/>
</svg>
