<svg width="19" height="19" viewBox="0 0 19 19" fill="none" xmlns="http://www.w3.org/2000/svg">
<g clip-path="url(#clip0_2061_3211)">
<path d="M5 10.625H9.5V12.875H5V10.625Z" fill="#69533F"/>
<path d="M18.5 2.75H17.375V0.5H6.125V2.75H3.875V4.15625L3.2 5H1.625V6.96875L0.5 8.375V18.5H14L18.5 12.875V2.75ZM2.75 6.125H11.75V8.375H2.75V6.125ZM12.875 17.375H1.625V9.5H12.875V17.375ZM14 8.375H12.875V5H5V3.875H14V8.375ZM16.25 5.5625L15.125 6.96875V2.75H7.25V1.625H16.25V5.5625Z" fill="#69533F"/>
</g>
<defs>
<clipPath id="clip0_2061_3211">
<rect width="18" height="18" fill="white" transform="translate(0.5 0.5)"/>
</clipPath>
</defs>
</svg>
