<svg width="18" height="18" viewBox="0 0 18 18" fill="none" xmlns="http://www.w3.org/2000/svg">
<g clip-path="url(#clip0_278_72950)">
<path d="M13.3837 4.61636C13.3837 4.61636 13.059 6.30011 11.1787 8.17961C9.29998 10.0591 7.61623 10.3831 7.61623 10.3831M15.306 12.3054C14.9273 12.6841 14.4777 12.9846 13.9829 13.1896C13.4881 13.3945 12.9578 13.5001 12.4222 13.5001C11.8866 13.5001 11.3563 13.3945 10.8615 13.1896C10.3667 12.9846 9.91715 12.6841 9.53848 12.3054L5.69398 8.46086C5.31533 8.08216 5.01498 7.63259 4.81007 7.13781C4.60517 6.64304 4.49972 6.11275 4.49976 5.57722C4.49983 4.49567 4.92954 3.45845 5.69435 2.69373C6.45917 1.92902 7.49645 1.49944 8.57799 1.49951C9.65954 1.49958 10.6968 1.92929 11.4615 2.69411L15.3052 6.53861C15.684 6.91728 15.9844 7.36685 16.1894 7.86165C16.3944 8.35645 16.4999 8.88678 16.4999 9.42236C16.4999 9.95794 16.3944 10.4883 16.1894 10.9831C15.9844 11.4779 15.684 11.9274 15.3052 12.3061L15.306 12.3054Z" stroke="#69533F" stroke-width="1.125"/>
<path opacity="0.5" d="M10.875 4.875L9.75 3.75" stroke="#69533F" stroke-width="1.125" stroke-linecap="round"/>
<path opacity="0.5" d="M5.04749 7.60156C4.25632 7.7731 3.52607 8.15488 2.93371 8.70669C2.34135 9.25849 1.90882 9.95987 1.6817 10.7369C1.45458 11.514 1.44128 12.3379 1.64321 13.1218C1.84514 13.9058 2.25482 14.6208 2.82907 15.1914C3.40331 15.762 4.12086 16.1672 4.90609 16.3642C5.69131 16.5611 6.51513 16.5426 7.29072 16.3106C8.06631 16.0786 8.76495 15.6416 9.313 15.0458C9.86105 14.4499 10.2382 13.7173 10.4047 12.9251" stroke="#69533F" stroke-width="1.125"/>
</g>
<defs>
<clipPath id="clip0_278_72950">
<rect width="18" height="18" fill="white"/>
</clipPath>
</defs>
</svg>
