<svg width="18" height="19" viewBox="0 0 18 19" fill="none" xmlns="http://www.w3.org/2000/svg">
<path d="M13.384 5.11636C13.384 5.11636 13.0592 6.80011 11.179 8.67961C9.30022 10.5591 7.61647 10.8831 7.61647 10.8831M15.3062 12.8054C14.9276 13.1841 14.478 13.4846 13.9832 13.6896C13.4884 13.8945 12.9581 14.0001 12.4225 14.0001C11.8869 14.0001 11.3566 13.8945 10.8618 13.6896C10.367 13.4846 9.91739 13.1841 9.53872 12.8054L5.69422 8.96086C5.31557 8.58216 5.01522 8.13259 4.81032 7.63781C4.60541 7.14304 4.49997 6.61275 4.5 6.07722C4.50007 4.99567 4.92978 3.95845 5.6946 3.19373C6.45942 2.42902 7.49669 1.99944 8.57824 1.99951C9.65978 1.99958 10.697 2.42929 11.4617 3.19411L15.3055 7.03861C15.6842 7.41728 15.9847 7.86685 16.1897 8.36165C16.3947 8.85645 16.5002 9.38678 16.5002 9.92236C16.5002 10.4579 16.3947 10.9883 16.1897 11.4831C15.9847 11.9779 15.6842 12.4274 15.3055 12.8061L15.3062 12.8054Z" stroke="#69533F" stroke-width="1.125"/>
<path opacity="0.5" d="M10.875 5.375L9.75 4.25" stroke="#69533F" stroke-width="1.125" stroke-linecap="round"/>
<path opacity="0.5" d="M5.04749 8.10156C4.25632 8.2731 3.52607 8.65488 2.93371 9.20669C2.34135 9.75849 1.90882 10.4599 1.6817 11.2369C1.45458 12.014 1.44128 12.8379 1.64321 13.6218C1.84514 14.4058 2.25482 15.1208 2.82907 15.6914C3.40331 16.262 4.12086 16.6672 4.90609 16.8642C5.69131 17.0611 6.51513 17.0426 7.29072 16.8106C8.06631 16.5786 8.76495 16.1416 9.313 15.5458C9.86105 14.9499 10.2382 14.2173 10.4047 13.4251" stroke="#69533F" stroke-width="1.125"/>
</svg>
