<svg width="18" height="19" viewBox="0 0 18 19" fill="none" xmlns="http://www.w3.org/2000/svg">
<path d="M12.4575 16.25C11.9605 16.25 11.5388 16.0763 11.1923 15.7288C10.8463 15.3808 10.6733 14.9583 10.6733 14.4613C10.6733 14.3862 10.7063 14.197 10.7723 13.8935L5.3745 10.6888C5.2125 10.8757 5.01425 11.0225 4.77975 11.129C4.54525 11.2355 4.2935 11.2887 4.0245 11.2887C3.5315 11.2887 3.1125 11.1132 2.7675 10.7622C2.4225 10.4112 2.25 9.9905 2.25 9.5C2.25 9.0095 2.4225 8.58875 2.7675 8.23775C3.1125 7.88675 3.5315 7.71125 4.0245 7.71125C4.293 7.71125 4.54475 7.7645 4.77975 7.871C5.01475 7.9775 5.213 8.1245 5.3745 8.312L10.773 5.12075C10.738 5.02375 10.7127 4.9275 10.6972 4.832C10.6812 4.736 10.6733 4.638 10.6733 4.538C10.6733 4.0415 10.8475 3.61925 11.196 3.27125C11.5445 2.92375 11.9675 2.75 12.465 2.75C12.9625 2.75 13.3845 2.92425 13.731 3.27275C14.0775 3.62125 14.2505 4.04425 14.25 4.54175C14.2495 5.03925 14.0758 5.46125 13.7288 5.80775C13.3818 6.15425 12.9592 6.32725 12.4613 6.32675C12.1902 6.32675 11.9402 6.27125 11.7113 6.16025C11.4823 6.04925 11.2872 5.9 11.1263 5.7125L5.727 8.91725C5.762 9.01425 5.78725 9.11075 5.80275 9.20675C5.81875 9.30225 5.82675 9.4 5.82675 9.5C5.82675 9.6 5.81875 9.69775 5.80275 9.79325C5.78675 9.88875 5.76175 9.98525 5.72775 10.0828L11.1263 13.2875C11.2878 13.1 11.4827 12.9507 11.7113 12.8397C11.9402 12.7287 12.1902 12.6733 12.4613 12.6733C12.9583 12.6733 13.3808 12.8472 13.7288 13.1952C14.0763 13.5443 14.25 13.9675 14.25 14.465C14.25 14.9625 14.0757 15.3845 13.7272 15.731C13.3787 16.0775 12.955 16.2505 12.4575 16.25Z" fill="#69533F"/>
</svg>
