<svg width="24" height="25" viewBox="0 0 24 25" fill="none" xmlns="http://www.w3.org/2000/svg">
<path d="M16.9754 3.0752C17.0311 3.01932 17.0973 2.97499 17.1702 2.94474C17.2431 2.9145 17.3213 2.89893 17.4002 2.89893C17.4791 2.89893 17.5572 2.9145 17.6301 2.94474C17.703 2.97499 17.7692 3.01932 17.825 3.0752L21.425 6.6752C21.5376 6.78786 21.6009 6.94067 21.6009 7.1C21.6009 7.25933 21.5376 7.41213 21.425 7.5248C21.3123 7.63746 21.1595 7.70076 21.0002 7.70076C20.8408 7.70076 20.688 7.63746 20.5754 7.5248L20.1002 7.0484L17.9486 9.2L20.225 11.4752C20.3376 11.5879 20.4009 11.7407 20.4009 11.9C20.4009 12.0593 20.3376 12.2121 20.225 12.3248C20.1123 12.4375 19.9595 12.5008 19.8002 12.5008C19.6408 12.5008 19.488 12.4375 19.3754 12.3248L18.0002 10.9484L11.3282 17.6204C11.0495 17.8993 10.7186 18.1206 10.3543 18.2715C9.99008 18.4224 9.59965 18.5001 9.20537 18.5H6.84857L3.42497 21.9248C3.31231 22.0375 3.1595 22.1008 3.00017 22.1008C2.84084 22.1008 2.68804 22.0375 2.57537 21.9248C2.46271 21.8121 2.39941 21.6593 2.39941 21.5C2.39941 21.3407 2.46271 21.1879 2.57537 21.0752L6.00017 17.6516V15.2936C6.00034 14.4983 6.31629 13.7356 6.87857 13.1732L13.5506 6.5L12.1754 5.1248C12.0627 5.01213 11.9994 4.85933 11.9994 4.7C11.9994 4.54067 12.0627 4.38786 12.1754 4.2752C12.288 4.16253 12.4408 4.09924 12.6002 4.09924C12.7595 4.09924 12.9123 4.16253 13.025 4.2752L15.3002 6.5516L17.4518 4.4L16.9754 3.9248C16.9195 3.86906 16.8752 3.80285 16.8449 3.72996C16.8147 3.65706 16.7991 3.57892 16.7991 3.5C16.7991 3.42108 16.8147 3.34293 16.8449 3.27004C16.8752 3.19714 16.9195 3.13093 16.9754 3.0752ZM12.0002 9.7484L11.0486 10.7L11.825 11.4752C11.9376 11.5879 12.0009 11.7407 12.0009 11.9C12.0009 12.0593 11.9376 12.2121 11.825 12.3248C11.7123 12.4375 11.5595 12.5008 11.4002 12.5008C11.2408 12.5008 11.088 12.4375 10.9754 12.3248L10.2002 11.5484L9.24857 12.5L10.025 13.2752C10.1376 13.3879 10.2009 13.5407 10.2009 13.7C10.2009 13.8593 10.1376 14.0121 10.025 14.1248C9.91231 14.2375 9.7595 14.3008 9.60017 14.3008C9.44084 14.3008 9.28804 14.2375 9.17537 14.1248L8.40017 13.3484L7.72817 14.0204C7.56069 14.1877 7.42785 14.3863 7.33725 14.605C7.24665 14.8237 7.20006 15.0581 7.20017 15.2948V17.3H9.20657C9.6838 17.2996 10.1413 17.1097 10.4786 16.772L17.1506 10.1L14.4002 7.3484L12.8486 8.9L13.625 9.6752C13.7376 9.78786 13.8009 9.94067 13.8009 10.1C13.8009 10.2593 13.7376 10.4121 13.625 10.5248C13.5123 10.6375 13.3595 10.7008 13.2002 10.7008C13.0408 10.7008 12.888 10.6375 12.7754 10.5248L12.0002 9.7484ZM19.2518 6.2L18.3002 5.2484L16.1486 7.4L17.1002 8.3516L19.2518 6.2Z" fill="#69533F"/>
</svg>
