<svg width="18" height="19" viewBox="0 0 18 19" fill="none" xmlns="http://www.w3.org/2000/svg">
<path d="M7.5 3.5C6.70435 3.5 5.94129 3.81607 5.37868 4.37868C4.81607 4.94129 4.5 5.70435 4.5 6.5C4.5 7.29565 4.81607 8.05871 5.37868 8.62132C5.94129 9.18393 6.70435 9.5 7.5 9.5C8.29565 9.5 9.05871 9.18393 9.62132 8.62132C10.1839 8.05871 10.5 7.29565 10.5 6.5C10.5 5.70435 10.1839 4.94129 9.62132 4.37868C9.05871 3.81607 8.29565 3.5 7.5 3.5ZM7.5 5C7.89782 5 8.27936 5.15804 8.56066 5.43934C8.84196 5.72064 9 6.10218 9 6.5C9 6.89782 8.84196 7.27936 8.56066 7.56066C8.27936 7.84196 7.89782 8 7.5 8C7.10218 8 6.72064 7.84196 6.43934 7.56066C6.15804 7.27936 6 6.89782 6 6.5C6 6.10218 6.15804 5.72064 6.43934 5.43934C6.72064 5.15804 7.10218 5 7.5 5ZM12.75 9.5C12.63 9.5 12.57 9.56 12.57 9.68L12.375 10.625C12.21 10.76 11.97 10.88 11.79 11L10.83 10.625C10.77 10.625 10.65 10.625 10.59 10.7L9.87 12.02C9.81 12.08 9.81 12.2 9.93 12.26L10.71 12.875V13.625L9.93 14.24C9.87 14.3 9.81 14.42 9.87 14.48L10.59 15.8C10.65 15.875 10.77 15.875 10.83 15.875L11.79 15.5C11.97 15.62 12.21 15.74 12.375 15.875L12.57 16.82C12.57 16.94 12.63 17 12.75 17H14.25C14.31 17 14.43 16.94 14.43 16.82L14.55 15.875C14.79 15.74 15.03 15.62 15.21 15.5L16.125 15.875C16.23 15.875 16.35 15.875 16.35 15.8L17.13 14.48C17.19 14.42 17.13 14.3 17.07 14.24L16.29 13.625V12.875L17.07 12.26C17.13 12.2 17.19 12.08 17.13 12.02L16.35 10.7C16.35 10.625 16.23 10.625 16.125 10.625L15.21 11C15.03 10.88 14.79 10.76 14.55 10.625L14.43 9.68C14.43 9.56 14.31 9.5 14.25 9.5H12.75ZM7.5 10.25C5.4975 10.25 1.5 11.2475 1.5 13.25V15.5H8.7525C8.5425 15.0575 8.3925 14.5775 8.3175 14.075H2.925V13.25C2.925 12.77 5.2725 11.675 7.5 11.675C7.8225 11.675 8.1525 11.705 8.475 11.75C8.625 11.27 8.8275 10.82 9.09 10.4075C8.505 10.31 7.95 10.25 7.5 10.25ZM13.53 12.125C14.13 12.125 14.625 12.62 14.625 13.28C14.625 13.88 14.13 14.375 13.53 14.375C12.87 14.375 12.375 13.88 12.375 13.28C12.375 12.62 12.87 12.125 13.53 12.125Z" fill="#69533F"/>
</svg>
