<svg width="24" height="25" viewBox="0 0 24 25" fill="none" xmlns="http://www.w3.org/2000/svg">
<path d="M9 20.5C8.68334 20.5 8.4 20.4083 8.15 20.225C7.9 20.0417 7.71667 19.8083 7.6 19.525L5.3 13.5H2C1.71667 13.5 1.47934 13.404 1.288 13.212C1.09667 13.02 1.00067 12.7827 1 12.5C0.999337 12.2173 1.09534 11.98 1.288 11.788C1.48067 11.596 1.718 11.5 2 11.5H6C6.21667 11.5 6.40434 11.5583 6.563 11.675C6.72167 11.7917 6.84234 11.95 6.925 12.15L9 17.6L13.6 5.475C13.7167 5.19167 13.9 4.95833 14.15 4.775C14.4 4.59167 14.6833 4.5 15 4.5C15.3167 4.5 15.6 4.59167 15.85 4.775C16.1 4.95833 16.2833 5.19167 16.4 5.475L18.7 11.5H22C22.2833 11.5 22.521 11.596 22.713 11.788C22.905 11.98 23.0007 12.2173 23 12.5C22.9993 12.7827 22.9033 13.0203 22.712 13.213C22.5207 13.4057 22.2833 13.5013 22 13.5H18C17.7833 13.5 17.596 13.4417 17.438 13.325C17.28 13.2083 17.159 13.05 17.075 12.85L15 7.4L10.4 19.525C10.2833 19.8083 10.1 20.0417 9.85 20.225C9.6 20.4083 9.31667 20.5 9 20.5Z" fill="#69533F"/>
</svg>
